<svg width="36" height="36" viewBox="0 0 36 36" fill="none" xmlns="http://www.w3.org/2000/svg">
<path d="M18 3C26.271 3 33 9.729 33 18C33 26.271 26.271 33 18 33C9.729 33 3 26.271 3 18C3 9.729 9.729 3 18 3ZM18 0C8.0595 0 0 8.0595 0 18C0 27.9405 8.0595 36 18 36C27.9405 36 36 27.9405 36 18C36 8.0595 27.9405 0 18 0ZM13.9365 22.5H13.125V15.9C13.3755 15.711 13.6455 15.549 13.9365 15.4365V22.5ZM16.374 22.5H17.1885V14.9535C17.001 15.171 16.8285 15.402 16.683 15.6555L16.374 15.504V22.5ZM14.751 22.5H15.5625V15.261C15.1515 15.1965 15.057 15.2205 14.751 15.2535V22.5ZM11.499 22.5H12.3135V16.7565C12.0585 17.1315 11.8605 17.55 11.751 18.0105L11.499 17.862V22.5ZM9.0615 18.2055C8.568 18.6525 8.25 19.3125 8.25 20.0595C8.25 20.808 8.568 21.4665 9.0615 21.9165V18.2055ZM24.402 17.6565C24.237 15.3345 22.449 13.5 20.244 13.5C19.413 13.5 18.648 13.7685 18 14.2185V22.5H25.386C26.691 22.5 27.75 21.36 27.75 19.9575C27.75 18.1305 25.989 16.8735 24.402 17.6565V17.6565ZM10.6875 17.6325C10.443 17.6115 10.26 17.607 9.876 17.7315V22.386C10.2375 22.503 10.3935 22.5 10.6875 22.5V17.6325V17.6325Z" fill="white"/>
</svg>
