<svg width="36" height="36" viewBox="0 0 36 36" fill="none" xmlns="http://www.w3.org/2000/svg">
<path d="M18 3C26.271 3 33 9.729 33 18C33 26.271 26.271 33 18 33C9.729 33 3 26.271 3 18C3 9.729 9.729 3 18 3ZM18 0C8.0595 0 0 8.0595 0 18C0 27.9405 8.0595 36 18 36C27.9405 36 36 27.9405 36 18C36 8.0595 27.9405 0 18 0ZM27.75 13.167C27.0885 13.461 26.376 13.659 25.629 13.749C26.3925 13.2915 26.976 12.5685 27.2535 11.706C26.5395 12.129 25.749 12.4365 24.9075 12.6015C24.2355 11.883 23.274 11.4345 22.2135 11.4345C19.8285 11.4345 18.0765 13.659 18.615 15.969C15.5475 15.8145 12.825 14.3445 11.004 12.111C10.0365 13.77 10.503 15.942 12.147 17.0415C11.5425 17.022 10.974 16.8555 10.476 16.5795C10.4355 18.2895 11.6625 19.89 13.4385 20.247C12.9195 20.388 12.3495 20.421 11.7705 20.31C12.24 21.777 13.6065 22.8435 15.2205 22.8735C13.665 24.0915 11.7105 24.636 9.75 24.405C11.385 25.4535 13.3245 26.064 15.4095 26.064C22.2675 26.064 26.1405 20.2725 25.9065 15.078C26.6295 14.559 27.255 13.908 27.75 13.167V13.167Z" fill="white"/>
</svg>
