<svg width="36" height="36" viewBox="0 0 36 36" fill="none" xmlns="http://www.w3.org/2000/svg">
<path d="M24.345 10.653C21.342 10.449 14.652 10.4505 11.6535 10.653C8.406 10.875 8.025 12.837 7.9995 18C8.025 23.154 8.4045 25.125 11.655 25.347C14.6535 25.5495 21.3435 25.551 24.3465 25.347C27.594 25.125 27.9765 23.1615 28.002 18C27.975 12.846 27.5955 10.875 24.345 10.653V10.653ZM15 21.333V14.667L22.167 17.994L15 21.333ZM18 3C26.271 3 33 9.729 33 18C33 26.271 26.271 33 18 33C9.729 33 3 26.271 3 18C3 9.729 9.729 3 18 3V3ZM18 0C8.0595 0 0 8.0595 0 18C0 27.9405 8.0595 36 18 36C27.9405 36 36 27.9405 36 18C36 8.0595 27.9405 0 18 0V0Z" fill="white"/>
</svg>
