<svg xmlns="http://www.w3.org/2000/svg" viewBox="0 0 93.53 81"><defs><style>.cls-1{fill:none;stroke:#fff;stroke-miterlimit:10;stroke-width:4px;}.cls-2{fill:#fff;}</style></defs><title>Asset 3</title><g id="Layer_2" data-name="Layer 2"><g id="Layer_1-2" data-name="Layer 1"><polygon class="cls-1" points="46.77 77 90.07 2 3.46 2 46.77 77"/><path class="cls-2" d="M55,46.5a13.45,13.45,0,0,1-4.12,1.57,19.86,19.86,0,0,1-4.12.43,19.51,19.51,0,0,1-4.12-.43,13.31,13.31,0,0,1-4.12-1.57,13.31,13.31,0,0,1,4.13-1.57,19.51,19.51,0,0,1,4.13-.43,19.86,19.86,0,0,1,4.13.43A13.45,13.45,0,0,1,55,46.5Z"/><path class="cls-1" d="M38.52,32.63"/><path class="cls-1" d="M55,32.63"/><path class="cls-2" d="M61,32.06a35.46,35.46,0,0,1-7.16,1.57,59,59,0,0,1-7.16.43,58,58,0,0,1-7.16-.43,35,35,0,0,1-7.16-1.57,35,35,0,0,1,7.16-1.57,58,58,0,0,1,7.16-.43,59,59,0,0,1,7.16.43A35.46,35.46,0,0,1,61,32.06Z"/><path class="cls-2" d="M66.54,17.63a65.66,65.66,0,0,1-9.91,1.57c-3.3.29-6.6.43-9.91.43s-6.6-.13-9.91-.43a64.85,64.85,0,0,1-9.91-1.57,64.85,64.85,0,0,1,9.91-1.57q5-.44,9.91-.43c3.3,0,6.6.14,9.91.43A65.66,65.66,0,0,1,66.54,17.63Z"/></g></g></svg>