<svg xmlns="http://www.w3.org/2000/svg" viewBox="0 0 127.3 76"><defs><style>.cls-1{fill:#fff;}</style></defs><title>Asset 1</title><g id="Layer_2" data-name="Layer 2"><g id="Layer_1-2" data-name="Layer 1"><path class="cls-1" d="M12.27,75.91c-.26-.12-.53-.22-.79-.35A20.63,20.63,0,0,1,6.12,71.8,25.29,25.29,0,0,1,3.8,69.23a15.14,15.14,0,0,1-2.23-4.11A24.28,24.28,0,0,1,.15,59.07,32.4,32.4,0,0,1,.08,53.6C.19,51.74.39,49.89.66,48,1.21,44.25,2.08,40.52,3,36.8,4.21,31.65,5.45,26.5,6.66,21.35q1.14-4.87,1.9-9.81c.36-2.33.66-4.68.81-7,.07-1.18.12-2.37.17-3.56A.81.81,0,0,1,9.59.67L9.8,2.23q.41,3.14,1,6.25a50.82,50.82,0,0,0,1.7,6.57c.49,1.41,1,2.78,1.58,4.17,1,2.72,2,5.46,2.78,8.27.16.6.3,1.21.46,1.85a1.17,1.17,0,0,0,.09-.18,67.44,67.44,0,0,1,4.69-12.59c1-2,2-4,2.85-6.09A31.77,31.77,0,0,0,27,3.36c.16-1,.32-2,.5-2.94,0,.34,0,.68.06,1,.06,1.2.09,2.39.17,3.59q.18,2.76.42,5.52c.12,1.45.26,2.9.42,4.35.19,1.69.39,3.39.62,5.07.29,2.11.59,4.23.93,6.34q1.14,7.06,2.86,14,1.06,4.25,2.38,8.43c0,.12.08.24.13.37h1.14l.15-.3a95.58,95.58,0,0,0,4-10.82,144,144,0,0,0,3.57-14.2c.44-2.19.83-4.39,1.21-6.58.21-1.23.37-2.47.55-3.71a1.21,1.21,0,0,1,.09-.34,98,98,0,0,0,4.05,20,24.72,24.72,0,0,0,2.7-4,28.05,28.05,0,0,0,2-4.4,34,34,0,0,0,1.21-4.63c0,.14,0,.27.06.41s0,.28,0,.42a18.56,18.56,0,0,1-.67,5.47,30.45,30.45,0,0,1-3.48,8q-.38.64-.8,1.26a.49.49,0,0,0-.07.48c1.4,4.3,3,8.53,4.75,12.69l.14.31H60c-.21-8.51-.45-17-.66-25.49.56,1.59,1,3.21,1.46,4.86a21.64,21.64,0,0,1,11.94-4l-.42.14a21.92,21.92,0,0,0-5.55,2.59,13,13,0,0,0-3.52,3.3,8.66,8.66,0,0,0-1.56,3.79,7.26,7.26,0,0,0,0,1.23A9.4,9.4,0,0,0,62.09,38c0,.09.07.18.11.3a44.5,44.5,0,0,1,9.77-4l-.32.19A65.73,65.73,0,0,0,65,38.83a21.83,21.83,0,0,0-2.22,1.88.88.88,0,0,0-.28.7c0,1.23,0,2.46-.06,3.69,0,.36,0,.71-.05,1.07,0,.09,0,.19,0,.33.26,0,.49,0,.72-.07a14.93,14.93,0,0,0,4.1-1.36c1.24-.6,2.46-1.26,3.7-1.86,1.42-.69,2.85-1.34,4.27-2a1,1,0,0,1,.27-.09c-1.75,1.27-3.5,2.52-5.23,3.8a54.49,54.49,0,0,0-5,4.14c.26.07,14.61.1,15.3,0q.24-5.25.15-10.52c-.07-3.52-.26-7-.58-10.54a17,17,0,0,1-5.24-1.55v-.07H75a29.22,29.22,0,0,0,4.66-.5,49.72,49.72,0,0,0,21.86-10,1,1,0,0,1,.35-.2c0,.1-.09.21-.15.31a89,89,0,0,1-5.88,9.48,69.29,69.29,0,0,1-6.62,8.08c-.66.68-1.35,1.33-2,2l-.27.25c0,.12.08.23.13.33a37,37,0,0,0,8.91,12c.31.27.63.53.95.79a.53.53,0,0,0,.28.14c.65,0,1.29,0,2,0l.14-.34c1.73-4.37,3.24-8.83,4.59-13.33,1.73-5.74,3.19-11.56,4.45-17.42q1.37-6.34,2.39-12.74c.27-1.69.49-3.39.74-5.09a.33.33,0,0,1,.1-.2s0,.09,0,.14a33.3,33.3,0,0,0,.76,6.61,107.54,107.54,0,0,0,4.13,14.45c.67,1.91,1.41,3.8,2.18,5.67l.09.2.24-.36a54.55,54.55,0,0,0,4.65-9A40.7,40.7,0,0,0,126,9.85c0-.22.08-.45.11-.67l.12-.66h.06c0,.11,0,.22,0,.32a32.93,32.93,0,0,1-.67,6.81A45.76,45.76,0,0,1,120.15,30a.65.65,0,0,0,0,.63q3.11,8.23,5.62,16.67A38.22,38.22,0,0,1,127,53.48c.12.93.19,1.87.22,2.8s0,2,0,3A21.47,21.47,0,0,1,122.4,72a17.62,17.62,0,0,1-4.2,3.72l-.34.2-.14,0a1.36,1.36,0,0,1,.1-.17,22.23,22.23,0,0,0,4.51-9.18,30.13,30.13,0,0,0,.79-5.4,37.08,37.08,0,0,0,0-4.75,30.62,30.62,0,0,0-.44-3.53l0-.16-.37,0H102.31a.7.7,0,0,0-.58.26l-7.11,7.88L92.74,63a.82.82,0,0,1-.2.17,111.81,111.81,0,0,0,5.1-10.35H81.91c-.31.77-.62,1.55-.94,2.33a14.29,14.29,0,0,1-1.13,2.21l.4-4.48c-.25-.08-42.89-.11-43.46,0A95.74,95.74,0,0,0,41,63L41,63c-.23-.19-.47-.37-.7-.56A29.34,29.34,0,0,1,35,56.4c-.7-1-1.32-2.15-2-3.23-.26-.43-.12-.38-.64-.38H4.22a2,2,0,0,0,0,.24,56.76,56.76,0,0,0,0,5.79,28.18,28.18,0,0,0,1.17,6.87,20.5,20.5,0,0,0,4.12,7.23c.85,1,1.75,1.91,2.69,2.8a1,1,0,0,0,.16.1Zm5.05-35.76h0c-.1-.66-.19-1.32-.3-2a68.65,68.65,0,0,0-2.42-9.88,46.93,46.93,0,0,0-3.33-7.85l-.28-.5c0,.15-.08.24-.09.33Q9.78,25.38,8.42,30.42c-.73,2.74-1.49,5.47-2.19,8.22a70.47,70.47,0,0,0-1.71,9.71c0,.24,0,.49-.06.75H31l-.13-.36a47.65,47.65,0,0,1-2.07-6.56c-.69-2.85-1.05-5.75-1.48-8.64-.2-1.35-.38-2.71-.56-4.07s-.33-2.61-.48-3.92-.25-2.49-.36-3.74a34.4,34.4,0,0,1-.16-4.1c0-.12,0-.24,0-.42l-.19.34c-.62,1.22-1.25,2.44-1.85,3.67a93.16,93.16,0,0,0-4.62,11.1,38.85,38.85,0,0,0-1.74,7Zm88,8.95c.74.07,16.49,0,16.75,0a144.85,144.85,0,0,0-4.27-14.89C113.78,39.32,109.52,44.17,105.27,49.09Zm4.11-11.88c.17-.13.28-.22.38-.31,1.24-1.12,2.49-2.23,3.71-3.38a27.49,27.49,0,0,0,2.77-3,.6.6,0,0,0,.11-.61c-1.56-5.16-3.08-10.33-4.44-15.54a2.17,2.17,0,0,0-.08-.22c-.06.69-.08,1.37-.12,2-.09,1.7-.19,3.4-.3,5.1-.08,1.26-.16,2.52-.29,3.77-.19,1.93-.38,3.86-.63,5.79-.18,1.44-.43,2.88-.68,4.31C109.7,35.81,109.54,36.47,109.38,37.22Zm-60.25,1.2c-1.54,1.31-8.29,9.73-8.58,10.69h12C51.31,45.57,50.23,42,49.13,38.42Zm46,10.69a31.09,31.09,0,0,1-5.55-5A36.7,36.7,0,0,1,85.3,38c-.33,1.89-.61,3.74-1,5.57s-.81,3.68-1.23,5.52ZM83,35.58l.38-.25a15.73,15.73,0,0,0,2.37-2.1,53.13,53.13,0,0,0,5.21-6.59,1.48,1.48,0,0,0,.08-.15l-.05,0-.15.06a13.5,13.5,0,0,1-3.33,1.12,24.29,24.29,0,0,1-4.82.48l-.29,0C82.47,30.62,82.73,33.06,83,35.58ZM46.36,24A92.15,92.15,0,0,1,44,39.55l.14-.09,4.15-3.94a.37.37,0,0,0,.11-.4c-.35-1.71-.7-3.42-1-5.13-.25-1.32-.46-2.65-.68-4C46.54,25.32,46.46,24.65,46.36,24Z"/></g></g></svg>